<svg xmlns="http://www.w3.org/2000/svg" xmlns:xlink="http://www.w3.org/1999/xlink" width="500" zoomAndPan="magnify" viewBox="0 0 375 374.999991" height="500" preserveAspectRatio="xMidYMid meet" version="1.0"><defs><clipPath id="5ae114009a"><path d="M 215 70 L 374 70 L 374 261.75 L 215 261.75 Z M 215 70 " clip-rule="nonzero"/></clipPath></defs><path fill="#000000" d="M 3.15625 0 L 3.15625 32.464844 L 48.296875 58.546875 L 74.742188 43.257812 L 74.742188 13.964844 L 93.441406 3.128906 L 93.441406 0 L 95.449219 0 L 95.449219 2.007812 L 98.898438 0 L 102.910156 0 L 95.449219 4.292969 L 95.449219 33.625 L 76.75 44.421875 L 76.75 62.199219 L 83.089844 58.546875 L 129.714844 85.472656 L 130.238281 85.753906 L 130.238281 88.28125 L 159.332031 71.464844 L 153.632812 68.214844 L 153.632812 13.964844 L 159.332031 10.675781 L 140.953125 0 L 144.964844 0 L 161.417969 9.511719 L 177.789062 0 L 181.800781 0 L 163.34375 10.675781 L 168.519531 13.683594 L 169.042969 13.964844 L 169.042969 68.214844 L 163.34375 71.464844 L 200.78125 93.09375 L 245.925781 67.253906 L 245.925781 15.085938 L 219.722656 0 L 223.734375 0 L 247.410156 13.683594 L 247.890625 13.964844 L 247.890625 68.214844 L 200.742188 95.421875 L 161.296875 72.628906 L 130.199219 90.605469 L 130.199219 110.671875 L 160.613281 93.09375 L 207.324219 120.382812 L 207.804688 120.703125 L 207.804688 174.953125 L 160.65625 202.203125 L 113.503906 174.953125 L 113.503906 149.835938 L 83.089844 167.410156 L 36.621094 140.445312 L 36.140625 140.164062 L 36.140625 85.753906 L 74.742188 63.359375 L 74.742188 45.585938 L 48.296875 60.832031 L 1.671875 33.90625 L 1.148438 33.625 L 1.148438 0 Z M 167.035156 67.253906 L 167.035156 15.085938 L 161.335938 12.039062 L 155.640625 15.328125 L 155.640625 67.492188 L 161.335938 70.785156 Z M 93.441406 32.464844 L 93.441406 5.457031 L 76.75 15.128906 L 76.75 42.132812 Z M 128.230469 86.914062 L 83.089844 60.832031 L 76.75 64.523438 L 76.75 67.253906 L 121.890625 93.296875 L 128.230469 89.644531 Z M 115.511719 173.832031 L 160.65625 199.875 L 205.796875 173.832031 L 205.796875 121.664062 L 160.65625 95.582031 L 130.238281 113.160156 L 130.238281 140.164062 L 115.511719 148.472656 Z M 115.511719 146.382812 L 128.230469 139.042969 L 128.230469 114.363281 L 115.511719 121.707031 Z M 37.945312 86.914062 L 37.945312 139.082031 L 83.089844 165.082031 L 113.503906 147.546875 L 113.503906 120.382812 L 128.230469 111.875 L 128.230469 91.8125 L 121.890625 95.460938 L 74.742188 68.214844 L 74.742188 65.488281 Z M 37.945312 86.914062 " fill-opacity="1" fill-rule="nonzero"/><g clip-path="url(#5ae114009a)"><path fill="#000000" d="M 272.371094 70.625 L 328.828125 103.246094 L 329.308594 103.527344 L 329.308594 138.359375 L 342.792969 130.574219 L 373.691406 148.472656 L 373.691406 150.796875 L 342.792969 132.980469 L 329.308594 140.445312 L 329.308594 169.097656 L 287.816406 193.171875 L 287.816406 228.003906 L 342.792969 259.824219 L 373.691406 241.96875 L 373.691406 244.296875 L 342.792969 262.113281 L 286.332031 229.527344 L 285.8125 229.246094 L 285.8125 194.417969 L 272.371094 202.203125 L 215.871094 169.578125 L 215.386719 169.296875 L 215.386719 103.527344 Z M 287.816406 191.007812 L 327.304688 168.132812 L 327.304688 141.808594 L 287.816406 164.523438 Z M 217.195312 168.132812 L 272.167969 199.875 L 285.8125 192.089844 L 285.8125 163.4375 L 327.304688 139.363281 L 327.304688 104.691406 L 272.371094 72.953125 L 217.195312 104.691406 Z M 217.195312 168.132812 " fill-opacity="1" fill-rule="nonzero"/></g><path fill="#000000" d="M 266.351562 0 L 266.351562 55.136719 L 321.285156 86.875 L 344.035156 73.753906 L 344.035156 37.640625 L 373.691406 20.625 L 373.691406 22.953125 L 346.042969 39.003906 L 346.042969 72.710938 L 373.691406 56.621094 L 373.691406 58.945312 L 346.042969 74.996094 L 346.042969 102.445312 L 373.691406 118.335938 L 373.691406 120.621094 L 344.558594 103.808594 L 344.035156 103.527344 L 344.035156 76.242188 L 321.285156 89.402344 L 264.824219 56.578125 L 264.34375 56.296875 L 264.34375 0 Z M 266.351562 0 " fill-opacity="1" fill-rule="nonzero"/></svg>