<svg xmlns="http://www.w3.org/2000/svg" xmlns:xlink="http://www.w3.org/1999/xlink" width="500" zoomAndPan="magnify" viewBox="0 0 375 374.999991" height="500" preserveAspectRatio="xMidYMid meet" version="1.0"><defs><clipPath id="fd948452ae"><path d="M 215 298 L 342.75 298 L 342.75 375 L 215 375 Z M 215 298 " clip-rule="nonzero"/></clipPath><clipPath id="9b2d9c51bf"><path d="M 0.0585938 0 L 113 0 L 113 117 L 0.0585938 117 Z M 0.0585938 0 " clip-rule="nonzero"/></clipPath></defs><path fill="#000000" d="M 1.101562 362.519531 L 49.472656 362.519531 L 62.71875 339.574219 L 62.71875 339.578125 L 71.921875 323.636719 C 71.226562 323.417969 70.605469 323.054688 70.078125 322.574219 L 60.878906 338.507812 L 60.878906 338.515625 L 48.25 360.386719 L 1.101562 360.386719 Z M 1.101562 272.882812 L 22.984375 272.882812 L 22.984375 272.878906 L 48.25 272.878906 L 60.878906 294.75 L 60.878906 294.753906 L 72.113281 314.210938 C 72.523438 314.101562 72.957031 314.039062 73.402344 314.039062 C 73.796875 314.039062 74.183594 314.089844 74.554688 314.175781 L 62.722656 293.6875 L 49.476562 270.75 L 22.988281 270.75 L 22.988281 270.746094 L 1.105469 270.746094 L 1.105469 272.882812 Z M 1.101562 272.882812 " fill-opacity="1" fill-rule="nonzero"/><g clip-path="url(#fd948452ae)"><path fill="#7db0e1" d="M 247.328125 298.632812 L 231.78125 325.5625 L 231.78125 325.558594 L 215.925781 353.023438 C 220.152344 360.347656 224.378906 367.675781 228.609375 375 L 330.078125 375 C 334.308594 367.675781 338.539062 360.347656 342.769531 353.023438 L 326.910156 325.558594 L 326.910156 325.5625 L 311.054688 298.101562 L 279.34375 298.101562 L 279.34375 298.097656 L 279.152344 298.097656 C 279.226562 298.441406 279.269531 298.792969 279.269531 299.160156 C 279.269531 299.527344 279.226562 299.882812 279.152344 300.226562 L 279.34375 300.226562 L 279.34375 300.222656 L 309.828125 300.222656 L 325.070312 326.621094 L 325.070312 326.625 L 340.308594 353.019531 L 328.851562 372.859375 L 229.835938 372.859375 L 218.382812 353.019531 L 233.621094 326.625 L 233.621094 326.621094 L 248.859375 300.226562 L 269.5625 300.226562 C 269.484375 299.882812 269.445312 299.527344 269.445312 299.160156 C 269.445312 298.792969 269.484375 298.441406 269.5625 298.097656 L 247.636719 298.097656 Z M 247.328125 298.632812 " fill-opacity="1" fill-rule="nonzero"/></g><path fill="#7db0e1" d="M 237.6875 225.574219 L 228.929688 240.742188 L 224.144531 249.023438 C 224.839844 249.242188 225.464844 249.609375 225.984375 250.089844 L 230.769531 241.808594 L 230.769531 241.804688 L 239.214844 227.167969 L 256.128906 227.167969 L 256.128906 227.164062 L 273.035156 227.164062 L 281.488281 241.804688 L 281.488281 241.808594 L 289.9375 256.449219 L 281.488281 271.089844 L 281.488281 271.09375 L 273.039062 285.730469 L 239.21875 285.730469 L 230.769531 271.09375 L 230.769531 271.089844 L 223.527344 258.546875 C 223.246094 258.597656 222.960938 258.625 222.667969 258.625 C 222.058594 258.625 221.472656 258.511719 220.929688 258.304688 L 228.929688 272.160156 L 228.929688 272.15625 L 237.996094 287.867188 L 274.261719 287.867188 L 283.328125 272.15625 L 283.328125 272.160156 L 292.394531 256.449219 L 274.261719 225.042969 L 256.128906 225.042969 L 256.128906 225.039062 L 237.996094 225.039062 Z M 237.6875 225.574219 " fill-opacity="1" fill-rule="nonzero"/><path fill="#7db0e1" d="M 121.042969 243.242188 L 103.632812 273.402344 L 103.628906 273.402344 L 85.90625 304.097656 L 103.628906 334.796875 L 103.632812 334.796875 L 121.359375 365.492188 L 192.238281 365.492188 L 209.964844 334.796875 L 227.6875 304.097656 L 192.242188 242.707031 L 156.800781 242.707031 L 156.800781 242.703125 L 121.359375 242.703125 Z M 105.46875 274.464844 L 122.578125 244.839844 L 156.796875 244.839844 L 156.796875 244.835938 L 191.015625 244.835938 L 208.121094 274.464844 L 208.121094 274.46875 L 225.230469 304.101562 L 208.121094 333.730469 L 208.121094 333.734375 L 191.019531 363.363281 L 122.578125 363.363281 L 105.46875 333.734375 L 105.46875 333.730469 L 88.363281 304.101562 L 105.46875 274.46875 Z M 105.46875 274.464844 " fill-opacity="1" fill-rule="nonzero"/><path fill="#000000" d="M 57.15625 134.980469 L 48.398438 150.152344 L 48.394531 150.148438 L 39.328125 165.859375 L 48.394531 181.566406 L 48.398438 181.566406 L 57.464844 197.269531 L 93.730469 197.269531 L 102.796875 181.566406 L 111.867188 165.859375 L 102.796875 150.148438 L 102.796875 150.152344 L 93.730469 134.449219 L 75.597656 134.449219 L 75.597656 134.445312 L 57.464844 134.445312 Z M 50.238281 151.210938 L 58.6875 136.574219 L 75.597656 136.574219 L 75.597656 136.570312 L 92.503906 136.570312 L 100.957031 151.210938 L 100.957031 151.21875 L 109.40625 165.859375 L 100.957031 180.5 L 100.957031 180.503906 L 92.503906 195.140625 L 58.683594 195.140625 L 50.238281 180.503906 L 50.238281 180.5 L 41.785156 165.859375 L 50.238281 151.21875 Z M 50.238281 151.210938 " fill-opacity="1" fill-rule="nonzero"/><path fill="#7db0e1" d="M 67.953125 203.769531 L 84.878906 174.453125 L 120.117188 174.453125 L 120.117188 174.441406 L 153.214844 174.441406 L 170.148438 203.769531 L 170.148438 203.777344 L 187.375 233.617188 L 170.148438 263.449219 L 170.148438 263.460938 L 153.222656 292.777344 L 84.878906 292.777344 L 67.949219 263.460938 L 67.949219 263.453125 L 50.726562 233.621094 L 67.949219 203.78125 L 67.949219 203.769531 Z M 83.347656 172.855469 L 65.816406 203.21875 L 65.816406 203.222656 L 48.269531 233.617188 L 65.816406 264.007812 L 65.816406 264.015625 C 71.761719 274.316406 77.707031 284.617188 83.65625 294.910156 L 154.445312 294.910156 C 160.390625 284.613281 166.335938 274.316406 172.28125 264.015625 L 172.28125 264.011719 L 189.828125 233.621094 L 172.28125 203.226562 L 172.28125 203.21875 C 166.335938 192.917969 160.386719 182.617188 154.441406 172.316406 C 142.289062 172.316406 130.132812 172.316406 117.984375 172.316406 L 117.984375 172.320312 L 83.65625 172.320312 Z M 83.347656 172.855469 " fill-opacity="1" fill-rule="nonzero"/><path fill="#7db0e1" d="M 73.179688 92.292969 L 83.792969 73.910156 L 126.269531 73.910156 L 137.417969 93.230469 L 137.421875 93.222656 L 147.503906 110.683594 L 136.738281 129.324219 L 136.738281 129.335938 L 126.28125 147.457031 L 83.789062 147.457031 L 62.558594 110.6875 Z M 82.261719 72.3125 L 60.105469 110.6875 C 67.59375 123.65625 75.082031 136.625 82.566406 149.59375 L 127.5 149.59375 L 138.875 129.894531 L 138.875 129.890625 L 149.960938 110.6875 L 138.199219 90.3125 L 138.195312 90.3125 L 127.492188 71.777344 L 82.570312 71.777344 Z M 82.261719 72.3125 " fill-opacity="1" fill-rule="nonzero"/><g clip-path="url(#9b2d9c51bf)"><path fill="#000000" d="M 77.925781 2.128906 L 110.214844 58.050781 L 77.941406 113.945312 L 13.355469 113.945312 L 2.171875 94.578125 L 2.171875 21.515625 L 13.359375 2.140625 Z M 112.367188 57.511719 L 79.15625 0.00390625 C 56.816406 0.0078125 34.472656 0.0117188 12.132812 0.015625 L 0.0351562 20.960938 L 0.0351562 95.128906 C 4.070312 102.113281 8.101562 109.097656 12.132812 116.082031 C 34.476562 116.082031 56.820312 116.082031 79.164062 116.082031 C 90.332031 96.734375 101.503906 77.390625 112.671875 58.042969 Z M 112.367188 57.511719 " fill-opacity="1" fill-rule="nonzero"/></g><path fill="#7db0e1" d="M 1.101562 141.429688 L 40.25 141.429688 L 51.402344 160.746094 L 51.410156 160.742188 L 61.488281 178.203125 L 50.726562 196.84375 L 50.726562 196.859375 L 40.261719 214.980469 L 1.101562 214.980469 L 1.101562 217.113281 L 41.484375 217.113281 L 52.859375 197.410156 L 52.859375 197.40625 L 63.945312 178.207031 L 52.179688 157.832031 L 41.476562 139.292969 L 1.101562 139.292969 Z M 1.101562 141.429688 " fill-opacity="1" fill-rule="nonzero"/><path fill="#000000" d="M 176.082031 279.507812 L 190.359375 254.777344 L 217.871094 254.777344 C 217.792969 254.433594 217.757812 254.078125 217.757812 253.714844 C 217.757812 253.347656 217.792969 252.988281 217.871094 252.644531 L 189.140625 252.644531 L 188.832031 253.183594 L 174.242188 278.445312 L 174.238281 278.445312 L 162.042969 299.570312 C 162.738281 299.789062 163.363281 300.15625 163.886719 300.636719 L 176.082031 279.511719 Z M 227.464844 254.777344 L 247.496094 254.777344 L 262.3125 280.4375 L 262.320312 280.4375 L 271.039062 295.542969 C 271.5625 295.0625 272.1875 294.695312 272.878906 294.480469 L 263.097656 277.539062 L 263.089844 277.539062 L 248.71875 252.644531 L 227.464844 252.644531 C 227.542969 252.988281 227.578125 253.34375 227.578125 253.710938 C 227.578125 254.078125 227.539062 254.433594 227.464844 254.777344 Z M 275.835938 303.847656 L 276.066406 304.246094 L 261.636719 329.238281 L 261.636719 329.253906 L 247.507812 353.722656 L 190.351562 353.722656 L 163.886719 307.875 C 163.363281 308.355469 162.738281 308.722656 162.046875 308.941406 C 171.078125 324.578125 180.101562 340.214844 189.132812 355.855469 L 248.730469 355.855469 C 253.742188 347.171875 258.757812 338.492188 263.769531 329.808594 L 263.769531 329.800781 L 278.519531 304.25 L 277.671875 302.78125 C 277.152344 303.265625 276.523438 303.632812 275.835938 303.847656 Z M 275.835938 303.847656 " fill-opacity="1" fill-rule="nonzero"/><path fill="#7db0e1" d="M 52.722656 344.75 L 67 320.019531 L 68.605469 320.019531 C 68.53125 319.675781 68.488281 319.316406 68.488281 318.957031 C 68.488281 318.589844 68.53125 318.230469 68.605469 317.886719 L 65.777344 317.886719 L 65.46875 318.421875 L 50.882812 343.6875 L 50.878906 343.6875 L 35.976562 369.5 L 38.539062 373.933594 L 40.996094 373.933594 L 38.433594 369.503906 L 52.722656 344.753906 Z M 152.601562 373.929688 L 155.160156 369.492188 C 150.019531 360.585938 144.878906 351.679688 139.738281 342.777344 L 139.734375 342.78125 L 125.359375 317.886719 L 78.195312 317.886719 C 78.269531 318.230469 78.3125 318.589844 78.3125 318.957031 C 78.3125 319.316406 78.269531 319.675781 78.195312 320.019531 L 124.136719 320.019531 L 138.953125 345.679688 L 138.957031 345.679688 L 152.703125 369.488281 L 150.136719 373.929688 Z M 152.601562 373.929688 " fill-opacity="1" fill-rule="nonzero"/><path fill="#000000" d="M 132.398438 168.863281 L 143.011719 150.484375 L 185.484375 150.484375 L 196.640625 169.796875 L 196.644531 169.796875 L 206.722656 187.257812 L 195.957031 205.898438 L 195.957031 205.910156 L 185.496094 224.03125 L 143.007812 224.03125 L 121.777344 187.261719 Z M 141.476562 148.886719 L 119.324219 187.261719 C 126.8125 200.230469 134.296875 213.199219 141.785156 226.167969 L 186.714844 226.167969 L 198.09375 206.46875 L 198.09375 206.464844 L 209.175781 187.261719 L 197.414062 166.886719 L 186.710938 148.351562 L 141.785156 148.351562 Z M 141.476562 148.886719 " fill-opacity="1" fill-rule="nonzero"/><path fill="#7db0e1" d="M 153.828125 177.222656 C 151.710938 177.222656 149.984375 175.496094 149.984375 173.378906 C 149.984375 171.261719 151.710938 169.535156 153.828125 169.535156 C 155.945312 169.535156 157.671875 171.261719 157.671875 173.378906 C 157.671875 175.496094 155.945312 177.222656 153.828125 177.222656 Z M 153.828125 177.222656 " fill-opacity="1" fill-rule="evenodd"/><path fill="#7db0e1" d="M 84.265625 177.230469 C 82.148438 177.230469 80.421875 175.503906 80.421875 173.386719 C 80.421875 171.269531 82.148438 169.539062 84.265625 169.539062 C 86.382812 169.539062 88.109375 171.269531 88.109375 173.386719 C 88.109375 175.503906 86.382812 177.230469 84.265625 177.230469 Z M 84.265625 177.230469 " fill-opacity="1" fill-rule="evenodd"/><path fill="#7db0e1" d="M 49.496094 237.457031 C 47.382812 237.457031 45.652344 235.730469 45.652344 233.613281 C 45.652344 231.496094 47.378906 229.769531 49.496094 229.769531 C 51.617188 229.769531 53.34375 231.496094 53.34375 233.613281 C 53.34375 235.730469 51.613281 237.457031 49.496094 237.457031 Z M 49.496094 237.457031 " fill-opacity="1" fill-rule="evenodd"/><path fill="#7db0e1" d="M 93.058594 297.6875 C 90.9375 297.6875 89.210938 295.960938 89.210938 293.84375 C 89.210938 291.726562 90.9375 290 93.058594 290 C 95.171875 290 96.902344 291.726562 96.902344 293.84375 C 96.902344 295.960938 95.175781 297.6875 93.058594 297.6875 Z M 93.058594 297.6875 " fill-opacity="1" fill-rule="evenodd"/><path fill="#7db0e1" d="M 153.832031 297.6875 C 151.714844 297.6875 149.988281 295.960938 149.988281 293.84375 C 149.988281 291.726562 151.714844 290 153.832031 290 C 155.953125 290 157.679688 291.726562 157.679688 293.84375 C 157.679688 295.960938 155.953125 297.6875 153.832031 297.6875 Z M 153.832031 297.6875 " fill-opacity="1" fill-rule="evenodd"/><path fill="#7db0e1" d="M 197.367188 257.558594 C 195.253906 257.558594 193.523438 255.828125 193.523438 253.710938 C 193.523438 251.59375 195.25 249.863281 197.367188 249.863281 C 199.484375 249.863281 201.210938 251.589844 201.210938 253.710938 C 201.210938 255.828125 199.484375 257.558594 197.367188 257.558594 Z M 197.367188 257.558594 " fill-opacity="1" fill-rule="evenodd"/><path fill="#7db0e1" d="M 121.96875 247.617188 C 119.851562 247.617188 118.121094 245.890625 118.121094 243.769531 C 118.121094 241.652344 119.847656 239.925781 121.96875 239.925781 C 124.085938 239.925781 125.8125 241.652344 125.8125 243.769531 C 125.808594 245.890625 124.082031 247.617188 121.96875 247.617188 Z M 121.96875 247.617188 " fill-opacity="1" fill-rule="evenodd"/><path fill="#7db0e1" d="M 93.117188 200.050781 C 91.003906 200.050781 89.273438 198.324219 89.273438 196.203125 C 89.273438 194.085938 91 192.359375 93.117188 192.359375 C 95.234375 192.359375 96.964844 194.085938 96.964844 196.203125 C 96.964844 198.324219 95.234375 200.050781 93.117188 200.050781 Z M 93.117188 200.050781 " fill-opacity="1" fill-rule="evenodd"/><path fill="#7db0e1" d="M 58.078125 139.355469 C 55.957031 139.355469 54.230469 137.628906 54.230469 135.511719 C 54.230469 133.394531 55.957031 131.667969 58.078125 131.667969 C 60.195312 131.667969 61.921875 133.394531 61.921875 135.511719 C 61.921875 137.628906 60.195312 139.355469 58.078125 139.355469 Z M 58.078125 139.355469 " fill-opacity="1" fill-rule="evenodd"/><path fill="#7db0e1" d="M 248.121094 358.632812 C 246.003906 358.632812 244.277344 356.90625 244.277344 354.789062 C 244.277344 352.671875 246.003906 350.945312 248.121094 350.945312 C 250.238281 350.945312 251.964844 352.671875 251.964844 354.789062 C 251.964844 356.90625 250.238281 358.632812 248.121094 358.632812 Z M 248.121094 358.632812 " fill-opacity="1" fill-rule="evenodd"/><path fill="#7db0e1" d="M 197.195312 358.632812 C 195.078125 358.632812 193.351562 356.90625 193.351562 354.789062 C 193.351562 352.671875 195.078125 350.945312 197.195312 350.945312 C 199.3125 350.945312 201.039062 352.671875 201.039062 354.789062 C 201.039062 356.90625 199.3125 358.632812 197.195312 358.632812 Z M 197.195312 358.632812 " fill-opacity="1" fill-rule="evenodd"/><path fill="#000000" d="M 274.355469 294.253906 C 273 294.253906 271.773438 294.800781 270.882812 295.6875 C 269.996094 296.578125 269.445312 297.804688 269.445312 299.164062 C 269.445312 300.519531 269.996094 301.75 270.882812 302.636719 C 271.773438 303.523438 273 304.074219 274.355469 304.074219 C 275.710938 304.074219 276.941406 303.523438 277.828125 302.636719 C 278.714844 301.75 279.269531 300.519531 279.269531 299.164062 C 279.269531 297.804688 278.714844 296.578125 277.828125 295.6875 C 276.941406 294.800781 275.710938 294.253906 274.355469 294.253906 Z M 272.390625 297.195312 C 272.894531 296.695312 273.585938 296.386719 274.355469 296.386719 C 275.121094 296.386719 275.816406 296.695312 276.320312 297.195312 C 276.820312 297.699219 277.132812 298.394531 277.132812 299.164062 C 277.132812 299.929688 276.820312 300.625 276.320312 301.128906 C 275.816406 301.628906 275.121094 301.941406 274.355469 301.941406 C 273.585938 301.941406 272.894531 301.628906 272.390625 301.128906 C 271.890625 300.625 271.582031 299.929688 271.582031 299.164062 C 271.582031 298.394531 271.890625 297.699219 272.390625 297.195312 Z M 272.390625 297.195312 " fill-opacity="1" fill-rule="nonzero"/><path fill="#000000" d="M 222.667969 248.796875 C 221.308594 248.796875 220.082031 249.351562 219.195312 250.238281 C 218.304688 251.125 217.757812 252.355469 217.757812 253.710938 C 217.757812 255.066406 218.304688 256.292969 219.195312 257.183594 C 220.082031 258.070312 221.308594 258.621094 222.667969 258.621094 C 224.023438 258.621094 225.253906 258.070312 226.140625 257.183594 C 227.027344 256.292969 227.578125 255.066406 227.578125 253.710938 C 227.578125 252.355469 227.027344 251.125 226.140625 250.238281 C 225.253906 249.351562 224.023438 248.796875 222.667969 248.796875 Z M 220.703125 251.746094 C 221.203125 251.242188 221.898438 250.933594 222.667969 250.933594 C 223.433594 250.933594 224.128906 251.242188 224.632812 251.746094 C 225.136719 252.25 225.445312 252.945312 225.445312 253.710938 C 225.445312 254.480469 225.136719 255.171875 224.632812 255.675781 C 224.128906 256.175781 223.433594 256.484375 222.667969 256.484375 C 221.898438 256.484375 221.203125 256.175781 220.703125 255.675781 C 220.199219 255.171875 219.890625 254.480469 219.890625 253.710938 C 219.890625 252.945312 220.199219 252.25 220.703125 251.746094 Z M 220.703125 251.746094 " fill-opacity="1" fill-rule="nonzero"/><path fill="#000000" d="M 160.566406 299.34375 C 159.210938 299.34375 157.980469 299.890625 157.09375 300.785156 C 156.207031 301.671875 155.65625 302.898438 155.65625 304.253906 C 155.65625 305.609375 156.207031 306.839844 157.09375 307.726562 C 157.980469 308.617188 159.210938 309.167969 160.566406 309.167969 C 161.925781 309.167969 163.152344 308.617188 164.039062 307.726562 C 164.929688 306.839844 165.476562 305.609375 165.476562 304.253906 C 165.476562 302.898438 164.929688 301.671875 164.039062 300.785156 C 163.152344 299.890625 161.925781 299.34375 160.566406 299.34375 Z M 158.601562 302.292969 C 159.105469 301.789062 159.800781 301.476562 160.566406 301.476562 C 161.332031 301.476562 162.03125 301.789062 162.53125 302.292969 C 163.035156 302.796875 163.34375 303.488281 163.34375 304.253906 C 163.34375 305.019531 163.035156 305.714844 162.53125 306.21875 C 162.03125 306.722656 161.332031 307.03125 160.566406 307.03125 C 159.800781 307.03125 159.105469 306.722656 158.601562 306.21875 C 158.097656 305.714844 157.789062 305.019531 157.789062 304.253906 C 157.789062 303.488281 158.097656 302.796875 158.601562 302.292969 Z M 158.601562 302.292969 " fill-opacity="1" fill-rule="nonzero"/><path fill="#000000" d="M 73.398438 314.039062 C 72.042969 314.039062 70.816406 314.59375 69.929688 315.480469 C 69.039062 316.367188 68.488281 317.597656 68.488281 318.953125 C 68.488281 320.308594 69.039062 321.535156 69.929688 322.421875 C 70.816406 323.3125 72.042969 323.863281 73.398438 323.863281 C 74.753906 323.863281 75.984375 323.3125 76.871094 322.421875 C 77.757812 321.535156 78.3125 320.308594 78.3125 318.953125 C 78.3125 317.597656 77.757812 316.367188 76.871094 315.480469 C 75.984375 314.59375 74.753906 314.039062 73.398438 314.039062 Z M 71.4375 316.988281 C 71.9375 316.484375 72.632812 316.175781 73.398438 316.175781 C 74.164062 316.175781 74.859375 316.484375 75.363281 316.988281 C 75.867188 317.492188 76.175781 318.1875 76.175781 318.953125 C 76.175781 319.71875 75.867188 320.414062 75.363281 320.914062 C 74.859375 321.417969 74.164062 321.726562 73.398438 321.726562 C 72.632812 321.726562 71.9375 321.417969 71.4375 320.914062 C 70.933594 320.414062 70.625 319.714844 70.625 318.953125 C 70.625 318.1875 70.933594 317.492188 71.4375 316.988281 Z M 71.4375 316.988281 " fill-opacity="1" fill-rule="nonzero"/></svg>