<svg xmlns="http://www.w3.org/2000/svg" xmlns:xlink="http://www.w3.org/1999/xlink" width="500" zoomAndPan="magnify" viewBox="0 0 375 374.999991" height="500" preserveAspectRatio="xMidYMid meet" version="1.0"><defs><g/></defs><g fill="#000000" fill-opacity="1"><g transform="translate(6.515417, 76.370141)"><g><path d="M 41.589844 -31.851562 L 42.316406 -32.125 C 42.316406 -32.125 43.863281 -37.21875 43.863281 -44.863281 C 43.863281 -52.507812 42.316406 -57.878906 42.316406 -57.878906 C 37.949219 -59.515625 28.394531 -60.515625 23.023438 -60.515625 L 4.277344 -60.515625 L 4.277344 0 L 23.023438 0 C 28.394531 0 37.949219 -0.910156 42.316406 -2.640625 C 42.316406 -2.640625 43.863281 -8.28125 43.863281 -17.015625 C 43.863281 -25.664062 42.316406 -31.667969 42.316406 -31.667969 C 42.042969 -31.667969 41.859375 -31.757812 41.589844 -31.851562 Z M 36.945312 -5.914062 C 36.945312 -5.914062 28.847656 -4.824219 23.023438 -4.824219 L 10.191406 -4.824219 L 10.191406 -29.484375 L 23.933594 -29.484375 C 29.574219 -29.394531 36.945312 -28.300781 36.945312 -28.300781 C 36.945312 -28.300781 37.949219 -23.933594 37.949219 -17.015625 C 37.949219 -10.011719 36.945312 -5.914062 36.945312 -5.914062 Z M 23.023438 -55.691406 C 28.847656 -55.691406 36.945312 -54.511719 36.945312 -54.511719 C 36.945312 -54.511719 37.949219 -50.140625 37.949219 -44.863281 C 37.949219 -39.675781 36.945312 -35.398438 36.945312 -35.398438 C 36.945312 -35.398438 29.300781 -34.398438 23.570312 -34.308594 L 10.191406 -34.308594 L 10.191406 -55.691406 Z M 23.023438 -55.691406 "/></g></g></g><g fill="#000000" fill-opacity="1"><g transform="translate(66.211602, 76.370141)"><g><path d="M 10.011719 -58.058594 C 8.828125 -58.332031 8.464844 -58.605469 7.097656 -58.605469 C 5.640625 -58.605469 5.277344 -58.332031 4.1875 -58.058594 C 3.914062 -56.875 3.730469 -56.238281 3.730469 -54.875 C 3.730469 -53.507812 3.914062 -52.78125 4.1875 -51.6875 C 5.277344 -51.324219 5.640625 -51.144531 7.097656 -51.144531 C 8.464844 -51.144531 8.828125 -51.324219 10.011719 -51.6875 C 10.191406 -52.78125 10.375 -53.507812 10.375 -54.875 C 10.375 -56.238281 10.191406 -56.875 10.011719 -58.058594 Z M 10.011719 -39.222656 C 8.191406 -39.859375 6.1875 -40.496094 4.09375 -40.769531 L 4.09375 0 L 10.011719 0 Z M 10.011719 -39.222656 "/></g></g></g><g fill="#000000" fill-opacity="1"><g transform="translate(92.420903, 76.370141)"><g><path d="M 4.09375 0 L 10.101562 0 L 10.101562 -59.058594 C 8.191406 -59.605469 6.1875 -60.0625 4.09375 -60.425781 Z M 4.09375 0 "/></g></g></g><g fill="#000000" fill-opacity="1"><g transform="translate(118.630205, 76.370141)"><g><path d="M 4.09375 0 L 10.101562 0 L 10.101562 -59.058594 C 8.191406 -59.605469 6.1875 -60.0625 4.09375 -60.425781 Z M 4.09375 0 "/></g></g></g><g fill="#000000" fill-opacity="1"><g transform="translate(144.839507, 76.370141)"><g><path d="M 65.15625 -58.421875 C 60.789062 -60.152344 46.683594 -61.0625 35.492188 -61.0625 C 24.386719 -61.0625 10.285156 -60.152344 5.914062 -58.421875 C 5.914062 -58.421875 4.277344 -46.230469 4.277344 -30.121094 L 4.277344 0 L 10.191406 0 L 10.191406 -30.121094 C 10.191406 -43.589844 11.285156 -55.148438 11.285156 -55.148438 C 11.285156 -55.148438 18.65625 -56.148438 32.578125 -56.238281 L 32.578125 0 L 38.492188 0 L 38.492188 -56.238281 C 52.324219 -56.148438 59.789062 -55.148438 59.789062 -55.148438 C 59.789062 -55.148438 60.789062 -43.316406 60.789062 -30.121094 L 60.789062 0 L 66.703125 0 L 66.703125 -30.121094 C 66.703125 -46.320312 65.15625 -58.421875 65.15625 -58.421875 Z M 65.15625 -58.421875 "/></g></g></g><g fill="#000000" fill-opacity="1"><g transform="translate(227.921878, 76.370141)"><g><path d="M 34.125 -39.402344 C 29.757812 -41.132812 25.117188 -42.132812 19.746094 -42.132812 C 14.378906 -42.132812 10.101562 -41.132812 5.640625 -39.402344 L 5.097656 -35.125 C 7.644531 -35.765625 13.558594 -37.3125 19.746094 -37.3125 C 23.933594 -37.3125 28.847656 -36.128906 28.847656 -36.128906 C 28.847656 -36.128906 29.394531 -29.667969 29.574219 -24.296875 C 26.664062 -24.933594 23.113281 -25.390625 19.746094 -25.390625 C 14.378906 -25.390625 9.738281 -24.386719 5.277344 -22.660156 C 5.277344 -22.660156 3.820312 -18.5625 3.820312 -12.285156 C 3.820312 -5.914062 5.277344 -1.820312 5.277344 -1.820312 C 9.738281 -0.0898438 14.378906 0.910156 19.746094 0.910156 C 25.117188 0.910156 29.757812 -0.0898438 34.125 -1.820312 C 35.125 -7.460938 35.582031 -13.832031 35.582031 -20.65625 C 35.582031 -27.390625 35.125 -33.761719 34.125 -39.402344 Z M 19.746094 -3.914062 C 15.46875 -3.914062 10.648438 -5.097656 10.648438 -5.097656 C 10.648438 -5.097656 9.738281 -8.191406 9.738281 -12.285156 C 9.738281 -16.289062 10.648438 -19.382812 10.648438 -19.382812 C 10.648438 -19.382812 15.46875 -20.566406 19.746094 -20.566406 C 23.207031 -20.566406 26.753906 -20.113281 29.667969 -19.65625 C 29.574219 -13.921875 28.847656 -5.097656 28.847656 -5.097656 C 28.847656 -5.097656 23.933594 -3.914062 19.746094 -3.914062 Z M 19.746094 -3.914062 "/></g></g></g><g fill="#000000" fill-opacity="1"><g transform="translate(279.519326, 76.370141)"><g><path d="M 27.027344 -3.914062 C 22.75 -3.914062 17.925781 -5.097656 17.925781 -5.097656 C 17.925781 -5.097656 17.015625 -15.105469 17.015625 -20.566406 L 17.015625 -35.855469 L 32.578125 -35.855469 C 33.035156 -37.402344 33.488281 -39.039062 33.761719 -40.679688 L 17.015625 -40.679688 L 17.015625 -51.78125 C 14.925781 -51.417969 13.011719 -50.871094 11.101562 -50.234375 L 11.101562 -40.679688 L 3.457031 -40.679688 C 2.820312 -39.222656 2.367188 -37.582031 2.003906 -35.855469 L 11.101562 -35.855469 L 11.101562 -20.65625 C 11.101562 -13.832031 11.648438 -7.460938 12.558594 -1.820312 C 16.925781 -0.0898438 21.660156 0.910156 27.027344 0.910156 C 29.484375 0.910156 31.757812 0.726562 33.945312 0.273438 C 34.582031 -1.363281 35.125 -3.09375 35.492188 -4.914062 C 34.125 -4.640625 30.394531 -3.914062 27.027344 -3.914062 Z M 27.027344 -3.914062 "/></g></g></g><g fill="#000000" fill-opacity="1"><g transform="translate(329.023829, 76.370141)"><g><path d="M 35.582031 -23.207031 C 35.582031 -29.03125 34.945312 -34.488281 34.125 -39.402344 C 29.757812 -41.132812 25.027344 -42.132812 19.65625 -42.132812 C 14.289062 -42.132812 9.644531 -41.132812 5.277344 -39.402344 C 4.277344 -33.761719 3.820312 -27.390625 3.820312 -20.65625 C 3.820312 -13.832031 4.277344 -7.460938 5.277344 -1.820312 C 9.644531 -0.0898438 14.289062 0.910156 19.65625 0.910156 C 25.027344 0.910156 30.121094 -0.0898438 34.488281 -1.820312 C 34.761719 -3.277344 34.945312 -4.730469 35.125 -6.277344 C 32.578125 -5.640625 25.84375 -3.914062 19.65625 -3.914062 C 15.46875 -3.914062 10.554688 -5.097656 10.554688 -5.097656 C 10.554688 -5.097656 9.917969 -12.742188 9.738281 -18.292969 L 35.398438 -18.292969 C 35.398438 -18.292969 35.582031 -21.203125 35.582031 -23.207031 Z M 9.738281 -23.207031 C 9.917969 -28.757812 10.554688 -36.128906 10.554688 -36.128906 C 10.554688 -36.128906 15.46875 -37.3125 19.65625 -37.3125 C 23.933594 -37.3125 28.757812 -36.128906 28.757812 -36.128906 C 28.757812 -36.128906 29.394531 -28.757812 29.574219 -23.207031 Z M 9.738281 -23.207031 "/></g></g></g></svg>